<?xml version="1.0" encoding="UTF-8" standalone="no"?>
<!-- Created with Inkscape (http://www.inkscape.org/) -->

<svg
   width="210mm"
   height="297mm"
   viewBox="0 0 210 297"
   version="1.1"
   id="svg421"
   inkscape:version="1.2.2 (732a01da63, 2022-12-09)"
   sodipodi:docname="GUIGraphics.svg"
   xmlns:inkscape="http://www.inkscape.org/namespaces/inkscape"
   xmlns:sodipodi="http://sodipodi.sourceforge.net/DTD/sodipodi-0.dtd"
   xmlns:xlink="http://www.w3.org/1999/xlink"
   xmlns="http://www.w3.org/2000/svg"
   xmlns:svg="http://www.w3.org/2000/svg">
  <sodipodi:namedview
     id="namedview423"
     pagecolor="#ffffff"
     bordercolor="#000000"
     borderopacity="0.25"
     inkscape:showpageshadow="2"
     inkscape:pageopacity="0.0"
     inkscape:pagecheckerboard="0"
     inkscape:deskcolor="#d1d1d1"
     inkscape:document-units="mm"
     showgrid="false"
     inkscape:zoom="0.84096521"
     inkscape:cx="314.51955"
     inkscape:cy="306.19578"
     inkscape:window-width="1920"
     inkscape:window-height="1111"
     inkscape:window-x="1911"
     inkscape:window-y="-9"
     inkscape:window-maximized="1"
     inkscape:current-layer="layer1" />
  <defs
     id="defs418">
    <linearGradient
       inkscape:collect="always"
       id="linearGradient15762">
      <stop
         style="stop-color:#b3bcc4;stop-opacity:1;"
         offset="0"
         id="stop15758" />
      <stop
         style="stop-color:#dadfe2;stop-opacity:1;"
         offset="1"
         id="stop15760" />
    </linearGradient>
    <inkscape:path-effect
       effect="fillet_chamfer"
       id="path-effect12621"
       is_visible="true"
       lpeversion="1"
       nodesatellites_param="F,0,0,1,0,8.9958333,0,1 @ F,0,0,1,0,8.9958333,0,1 @ F,0,0,1,0,8.9958333,0,1 @ F,0,0,1,0,8.9958333,0,1"
       unit="px"
       method="auto"
       mode="F"
       radius="34"
       chamfer_steps="1"
       flexible="false"
       use_knot_distance="true"
       apply_no_radius="true"
       apply_with_radius="true"
       only_selected="false"
       hide_knots="false" />
    <linearGradient
       inkscape:collect="always"
       id="linearGradient11767">
      <stop
         style="stop-color:#7d929f;stop-opacity:1;"
         offset="0"
         id="stop11763" />
      <stop
         style="stop-color:#e5e5e5;stop-opacity:1;"
         offset="1"
         id="stop11765" />
    </linearGradient>
    <linearGradient
       inkscape:collect="always"
       xlink:href="#linearGradient11767"
       id="linearGradient11769"
       x1="39.799259"
       y1="60.328125"
       x2="39.720604"
       y2="27.371822"
       gradientUnits="userSpaceOnUse"
       gradientTransform="matrix(1.8329562,0,0,2.125664,27.241789,6.4286998)" />
    <linearGradient
       inkscape:collect="always"
       xlink:href="#linearGradient15762"
       id="linearGradient15764"
       x1="10.122339"
       y1="64.126678"
       x2="35.595037"
       y2="64.126678"
       gradientUnits="userSpaceOnUse"
       gradientTransform="matrix(0.73444904,0,0,0.73444904,22.925516,32.840407)" />
    <linearGradient
       inkscape:collect="always"
       xlink:href="#linearGradient15762"
       id="linearGradient15803"
       gradientUnits="userSpaceOnUse"
       gradientTransform="matrix(0.73444904,0,0,0.73444904,-194.86271,34.388456)"
       x1="10.122339"
       y1="64.126678"
       x2="35.595037"
       y2="64.126678" />
    <linearGradient
       inkscape:collect="always"
       xlink:href="#linearGradient15762"
       id="linearGradient15844"
       gradientUnits="userSpaceOnUse"
       gradientTransform="matrix(0.73444904,0,0,0.73444904,8.0663121,61.445651)"
       x1="10.122339"
       y1="64.126678"
       x2="35.595037"
       y2="64.126678" />
    <linearGradient
       inkscape:collect="always"
       xlink:href="#linearGradient15762"
       id="linearGradient15885"
       gradientUnits="userSpaceOnUse"
       gradientTransform="matrix(0.73444904,0,0,0.73444904,-152.05876,62.162415)"
       x1="10.122339"
       y1="64.126678"
       x2="35.595037"
       y2="64.126678" />
  </defs>
  <g
     inkscape:label="Layer 1"
     inkscape:groupmode="layer"
     id="layer1">
    <circle
       style="fill:url(#linearGradient15764);fill-opacity:1;stroke:none;stroke-width:1.77957;stroke-linecap:round;stroke-linejoin:round;stroke-dasharray:none;stroke-opacity:1;stop-color:#000000"
       id="path13126"
       cx="39.714062"
       cy="79.938179"
       r="9.3541994"
       inkscape:export-filename="menu\left.png"
       inkscape:export-xdpi="238.05963"
       inkscape:export-ydpi="238.05963" />
    <circle
       style="fill:#069330;stroke-width:0.272;stroke-linecap:round;stop-color:#000000"
       id="path598"
       cx="3.7360964"
       cy="3.5197961"
       r="3.0675316"
       inkscape:export-filename="buttons\green_btn.png"
       inkscape:export-xdpi="621.02051"
       inkscape:export-ydpi="621.02051" />
    <g
       id="g2451"
       transform="translate(-9.4624703,-1.2637402)"
       style="stroke:#f0f0f0;stroke-opacity:1">
      <path
         style="fill:none;stroke:#f0f0f0;stroke-width:0.846667;stroke-linecap:round;stroke-dasharray:none;stroke-opacity:1;stop-color:#000000"
         d="M 12.027229,6.6045476 V 2.906001 h 2.169358"
         id="path758"
         sodipodi:nodetypes="ccc" />
      <path
         style="fill:none;stroke:#f0f0f0;stroke-width:0.863303;stroke-linecap:round;stroke-dasharray:none;stroke-opacity:1;stop-color:#000000"
         d="m 12.094494,4.7126284 h 1.630313 c 0,0 0.660598,0.1808715 0.636198,1.0612649 -0.0244,0.792869 -0.561975,0.8788602 -0.561975,0.8788602 h -1.696526"
         id="path1486"
         sodipodi:nodetypes="ccccc" />
    </g>
    <circle
       style="fill:#ff0000;stroke-width:0.272;stroke-linecap:round;stop-color:#000000"
       id="path598-2"
       cx="10.480734"
       cy="3.5591233"
       r="3.0675316"
       inkscape:export-filename="buttons\red_btn.png"
       inkscape:export-xdpi="621.02051"
       inkscape:export-ydpi="621.02051" />
    <circle
       style="fill:#666666;stroke-width:0.272;stroke-linecap:round;stop-color:#000000"
       id="path598-2-5"
       cx="36.790806"
       cy="4.0044417"
       r="3.0675316"
       inkscape:export-filename="buttons\smilie.png"
       inkscape:export-xdpi="621.02039"
       inkscape:export-ydpi="621.02039" />
    <circle
       style="fill:#666666;stroke-width:0.272;stroke-linecap:round;stop-color:#000000"
       id="path598-2-5-0"
       cx="43.60392"
       cy="4.0183458"
       r="3.0675316"
       inkscape:export-filename="buttons\nine.png"
       inkscape:export-xdpi="621.02039"
       inkscape:export-ydpi="621.02039" />
    <circle
       style="fill:#666666;stroke-width:0.272;stroke-linecap:round;stop-color:#000000"
       id="path598-2-5-0-1"
       cx="50.437302"
       cy="4.2080245"
       r="3.0675316"
       inkscape:export-filename="buttons\two.png"
       inkscape:export-xdpi="621.02039"
       inkscape:export-ydpi="621.02039" />
    <ellipse
       style="fill:#666666;stroke-width:0.287609;stroke-linecap:round;stop-color:#000000"
       id="path598-2-9"
       cx="19.305017"
       cy="3.5787868"
       rx="3.8878858"
       ry="2.7060194"
       inkscape:export-filename="buttons\lambda.png"
       inkscape:export-xdpi="489.98352"
       inkscape:export-ydpi="489.98352" />
    <text
       xml:space="preserve"
       style="font-size:5.51644px;font-family:'Agency FB';-inkscape-font-specification:'Agency FB';fill:#ffffff;fill-opacity:1;stroke:#f0f0f0;stroke-width:1.47163;stroke-linecap:round;stroke-dasharray:none;stroke-opacity:1;stop-color:#000000"
       x="-12.561098"
       y="5.4914365"
       id="text3290"
       transform="scale(-0.98640341,1.013784)"><tspan
         sodipodi:role="line"
         id="tspan3288"
         style="font-style:normal;font-variant:normal;font-weight:bold;font-stretch:normal;font-family:Arial;-inkscape-font-specification:'Arial Bold';fill:#ffffff;fill-opacity:1;stroke:none;stroke-width:1.47163;stroke-dasharray:none;stroke-opacity:1"
         x="-12.561098"
         y="5.4914365">R</tspan></text>
    <text
       xml:space="preserve"
       style="font-style:normal;font-variant:normal;font-weight:bold;font-stretch:normal;font-size:5.78466px;font-family:Arial;-inkscape-font-specification:'Arial Bold';fill:#ffffff;fill-opacity:1;stroke:none;stroke-width:1.54318;stroke-linecap:round;stroke-dasharray:none;stroke-opacity:1;stop-color:#000000"
       x="17.704914"
       y="5.6491752"
       id="text6587"><tspan
         sodipodi:role="line"
         id="tspan6585"
         style="fill:#ffffff;stroke-width:1.54318"
         x="17.704914"
         y="5.6491752">λ</tspan></text>
    <ellipse
       style="fill:#666666;stroke-width:0.287609;stroke-linecap:round;stop-color:#000000"
       id="path598-2-9-0"
       cx="28.392603"
       cy="3.7263553"
       rx="3.8878858"
       ry="2.7060194"
       inkscape:export-filename="buttons\H.png"
       inkscape:export-xdpi="489.98358"
       inkscape:export-ydpi="489.98358" />
    <text
       xml:space="preserve"
       style="font-style:normal;font-variant:normal;font-weight:bold;font-stretch:normal;font-size:5.78466px;font-family:Arial;-inkscape-font-specification:'Arial Bold';fill:#ffffff;fill-opacity:1;stroke:none;stroke-width:1.54318;stroke-linecap:round;stroke-dasharray:none;stroke-opacity:1;stop-color:#000000"
       x="26.313742"
       y="5.7967439"
       id="text6587-2"><tspan
         sodipodi:role="line"
         id="tspan6585-7"
         style="fill:#ffffff;stroke-width:1.54318"
         x="26.313742"
         y="5.7967439">H</tspan></text>
    <path
       style="fill:none;fill-opacity:1;stroke:#f0f0f0;stroke-width:0.847;stroke-linecap:round;stroke-dasharray:none;stroke-opacity:1;stop-color:#000000"
       d="m 35.873123,2.4332544 c -0.17594,0 -0.06391,-0.019076 -0.250277,0.083426 -0.193268,0.1062961 -0.09061,0.015333 -0.208566,0.1529475 -0.0043,0.00498 -0.01389,0.00735 -0.01389,0.013904 0,0.066611 0.141065,0.1362448 0.194659,0.1112346 0.122592,-0.05721 0.261487,-0.1425901 0.278087,-0.2919905 0.0026,-0.023032 0.01886,-0.056052 0,-0.069522 -0.03394,-0.024246 -0.08342,0 -0.12514,0"
       id="path6891" />
    <path
       style="fill:none;fill-opacity:1;stroke:#f0f0f0;stroke-width:0.847;stroke-linecap:round;stroke-dasharray:none;stroke-opacity:1;stop-color:#000000"
       d="m 37.958768,2.5166802 c -0.02106,0.048373 -0.06624,-0.024268 -0.09733,-0.013904 -0.04066,0.013552 -0.02545,0.017899 -0.05562,0.055617 -0.0082,0.010237 -0.02053,0.016902 -0.02781,0.027809 -0.0051,0.00771 0,0.018539 0,0.027809 0,0.018539 -0.0083,0.039035 0,0.055617 0.04206,0.084126 0.305895,0.092005 0.305895,-0.041713 0,-0.013904 0.0077,-0.030144 0,-0.041713 -0.01072,-0.016073 -0.109143,-0.068189 -0.12514,-0.069522 -0.03724,-0.0031 -0.0741,0.00978 -0.111234,0.013904 -0.0065,7.144e-4 -0.03743,-0.00428 -0.04171,0 -0.0033,0.00328 7.94e-4,0.00936 0,0.013904 -0.0019,0.0087 -0.0365,0.088637 -0.02781,0.09733 0.01183,0.011816 0.02585,0.022524 0.04171,0.027808 0.0079,0.00262 0.162041,0.00962 0.166851,0 0.0093,-0.018505 0.01389,-0.07374 0.01389,-0.09733"
       id="path6956" />
    <path
       style="fill:none;fill-opacity:1;stroke:#f0f0f0;stroke-width:0.847;stroke-linecap:round;stroke-dasharray:none;stroke-opacity:1;stop-color:#000000"
       d="m 35.428183,4.6579442 c -0.07955,0.1361631 -0.05561,0.085247 -0.05561,0.2641817 0,0.061241 -0.0064,0.080423 0.02781,0.1390433 0.02008,0.034439 0.04943,0.062892 0.06952,0.09733 0.04798,0.082251 0.0021,0.057713 0.06952,0.1251386 0.0073,0.00733 0.02093,0.00616 0.02781,0.013904 0.03079,0.034641 0.05263,0.076594 0.08343,0.1112345 0.0069,0.00775 0.01971,0.00743 0.02781,0.013904 0.108903,0.08712 0.209582,0.1830443 0.333706,0.2502775 0.06746,0.03654 0.139944,0.06302 0.208563,0.09733 0.154154,0.077077 0.201253,0.093889 0.375417,0.139043 0.276368,0.071651 0.366909,0.09489 0.653503,0.083426 0.156689,-0.00627 0.431128,-0.013988 0.556172,-0.1251386 0.113126,-0.1005552 0.192191,-0.3460115 0.250278,-0.4727467 0.109934,-0.2398551 0.12514,-0.3258547 0.12514,-0.5978853 0,-0.057747 0.0035,-0.086689 -0.01392,-0.139043"
       id="path6958" />
    <path
       style="fill:none;fill-opacity:1;stroke:#f0f0f0;stroke-width:0.699764;stroke-linecap:round;stroke-dasharray:none;stroke-opacity:1;stop-color:#000000"
       d="m 43.616523,4.8839836 c 0.111063,-0.1025759 0.229738,-0.1967478 0.333189,-0.3077273 0.12449,-0.1335509 0.231914,-0.2834934 0.349053,-0.4241647 0.132913,-0.1596107 0.107999,-0.105116 0.285592,-0.332678 0.251993,-0.3228978 -0.102036,0.072759 0.206259,-0.2827764 0.06289,-0.072526 0.138785,-0.1323571 0.198328,-0.2079238 0.02663,-0.033794 0.04654,-0.07287 0.07139,-0.1081204 0.02013,-0.028551 0.04364,-0.054389 0.06347,-0.083169 0.0146,-0.021202 0.0237,-0.046444 0.03967,-0.066536 0.01085,-0.013637 0.02769,-0.020717 0.03967,-0.033268 0.03184,-0.033383 0.05542,-0.074737 0.08726,-0.1081204 0.0042,-0.00438 0.01283,-0.003 0.01586,-0.00832 0.0056,-0.0098 0.0031,-0.023044 0.0079,-0.033268 0.01686,-0.03536 0.07758,-0.071192 0.10313,-0.1247542"
       id="path7804" />
    <path
       style="fill:none;fill-opacity:1;stroke:#f0f0f0;stroke-width:0.696746;stroke-linecap:round;stroke-dasharray:none;stroke-opacity:1;stop-color:#000000"
       d="m 42.354884,2.7563987 c 0,0.2438921 0,0.4877843 0,0.7316764 0,0.037522 0.0027,0.075136 0,0.1125658 -0.01244,0.1752603 -0.031,0.3779446 -0.06508,0.5547875 -0.0084,0.04342 -0.0244,0.085183 -0.03254,0.1286464 -0.0099,0.052969 -0.01084,0.1072054 -0.01627,0.1608079 -0.005,0.050241 -0.0064,0.2407331 0,0.297495 0.007,0.062112 0.02959,0.1038047 0.04881,0.1608078 0.0059,0.017666 -0.0015,0.05617 0,0.072364 0.004,0.043524 0.01626,0.077759 0.01626,0.1206062"
       id="path7806" />
    <path
       style="fill:none;fill-opacity:1;stroke:#f0f0f0;stroke-width:0.699764;stroke-linecap:round;stroke-dasharray:none;stroke-opacity:1;stop-color:#000000"
       d="m 41.839512,2.6731888 c 0.08991,-0.011089 0.179207,-0.034717 0.269725,-0.033268 0.256962,0.00411 0.512697,0.039763 0.769507,0.049902 0.375317,0.014816 0.750975,0.017879 1.126496,0.02495 0.20887,0.00393 0.417826,-0.00292 0.626711,0 0.05559,7.833e-4 0.111023,0.00661 0.166594,0.00832 0.226844,0.007 0.455611,0 0.682245,0"
       id="path7808" />
    <path
       style="fill:none;fill-opacity:1;stroke:#f0f0f0;stroke-width:0.699764;stroke-linecap:round;stroke-dasharray:none;stroke-opacity:1;stop-color:#000000"
       d="m 41.934711,5.0268867 c 0.100457,0.00103 0.201109,-0.00554 0.301454,0 0.166889,0.00921 0.333091,0.029101 0.499784,0.041585 0.338009,0.025312 0.440069,0.021858 0.77744,0.058219 0.174883,0.01885 0.348259,0.05292 0.523582,0.066536 0.193038,0.013861 0.386076,0.027723 0.579114,0.041585 0.02116,0.00277 0.04222,0.00654 0.06347,0.00832 0.142918,0.011988 0.286156,0.014629 0.428385,0.033268 0.05033,0.0066 0.119853,0 0.166593,0 0.04387,0 0.112678,0.00964 0.158663,0 0.03227,-0.00677 0.03296,-0.00832 0.06346,-0.00832"
       id="path7810" />
    <path
       style="fill:none;fill-opacity:1;stroke:#f0f0f0;stroke-width:0.699764;stroke-linecap:round;stroke-dasharray:none;stroke-opacity:1;stop-color:#000000"
       d="m 45.422685,4.8793823 c -0.08385,-0.1258 -0.158208,-0.2577971 -0.251555,-0.3774 C 45.058797,4.3580553 44.927595,4.228407 44.807075,4.090621 44.67033,3.9342812 44.720233,3.9674478 44.523401,3.7563066 44.244106,3.4567106 44.579221,3.868507 44.276543,3.5081803 44.214803,3.4346763 44.167635,3.3503234 44.102362,3.2796471 c -0.02919,-0.031609 -0.06465,-0.057411 -0.09556,-0.087491 -0.02503,-0.024366 -0.04686,-0.051643 -0.07216,-0.075749 -0.01864,-0.01775 -0.04214,-0.030703 -0.05948,-0.049631 -0.01176,-0.012858 -0.01611,-0.030601 -0.02662,-0.044404 -0.02797,-0.03669 -0.0651,-0.066474 -0.09307,-0.1031638 -0.0037,-0.00484 -9.47e-4,-0.013142 -0.0057,-0.01697 -0.0088,-0.00707 -0.02227,-0.00668 -0.03161,-0.013029 -0.03227,-0.022206 -0.05812,-0.087802 -0.107001,-0.1214502"
       id="path7804-3" />
    <text
       xml:space="preserve"
       style="font-style:normal;font-variant:normal;font-weight:bold;font-stretch:normal;font-size:5.22686px;font-family:Arial;-inkscape-font-specification:'Arial Bold';fill:none;fill-opacity:1;stroke:#f0f0f0;stroke-width:1.39438;stroke-linecap:round;stroke-dasharray:none;stroke-opacity:1;stop-color:#000000"
       x="49.019585"
       y="5.9580903"
       id="text9360"><tspan
         sodipodi:role="line"
         id="tspan9358"
         style="fill:#ffffff;fill-opacity:1;stroke:none;stroke-width:1.39438"
         x="49.019585"
         y="5.9580903">2</tspan></text>
    <circle
       style="fill:#666666;stroke-width:0.272;stroke-linecap:round;stop-color:#000000"
       id="path598-2-5-0-1-7"
       cx="58.231258"
       cy="4.1156764"
       r="3.0675316"
       inkscape:export-filename="buttons\power.png"
       inkscape:export-xdpi="621.02039"
       inkscape:export-ydpi="621.02039" />
    <path
       style="fill:none;fill-opacity:1;stroke:#f0f0f0;stroke-width:0.695332;stroke-linecap:round;stroke-dasharray:none;stroke-opacity:1;stop-color:#000000"
       d="m 58.256627,2.160544 c -0.03649,0.3747696 -0.02283,0.7535692 -0.02283,1.1300391 0,0.087511 0,0.1750227 0,0.2625343 0,0.022581 0.0057,0.05704 0,0.079902 -0.0081,0.032472 -0.0114,0.047042 -0.0114,0.079902"
       id="path10913" />
    <path
       style="fill:none;fill-opacity:1;stroke:#f0f0f0;stroke-width:0.695332;stroke-linecap:round;stroke-dasharray:none;stroke-opacity:1;stop-color:#000000"
       d="m 57.240735,2.8796597 c -0.133682,0.04456 -0.153087,0.040494 -0.285366,0.1598035 -0.139848,0.1261377 -0.269623,0.2631317 -0.399508,0.3995089 -0.02257,0.023701 -0.04291,0.050395 -0.05707,0.079902 -0.119943,0.2498813 -0.159805,0.5252886 -0.159805,0.7990175 0,0.034244 -0.0051,0.068866 0,0.1027308 0.02743,0.1828216 0.121412,0.3594405 0.216876,0.5136542 0.05884,0.095044 0.12917,0.2269664 0.205462,0.3196069 0.02682,0.066759 0.09388,0.096677 0.136976,0.1483891 0.0621,0.074529 0.117867,0.1554313 0.182631,0.2282905 0.01974,0.02221 0.03462,0.049025 0.05707,0.068487 0.03509,0.030417 0.0761,0.053268 0.114146,0.079902 0.03805,0.026634 0.07294,0.058474 0.114146,0.079902 0.181311,0.094281 0.427897,0.1447165 0.627798,0.1598034 0.178322,0.013458 0.357655,0 0.536483,0 0.06849,0 0.138306,0.013432 0.205462,0 0.05397,-0.010793 0.151987,-0.075993 0.205461,-0.1027309 0.06872,-0.034359 0.268766,-0.1097017 0.353852,-0.1826324 0.01043,-0.00893 0.01312,-0.024544 0.02283,-0.034244 0.06661,-0.066612 0.135258,-0.1312329 0.205461,-0.1940473 0.07443,-0.066594 0.156245,-0.1248819 0.228292,-0.194047 0.06178,-0.059306 0.156993,-0.2226667 0.194048,-0.296778 0.03487,-0.069737 0.179414,-0.383135 0.194047,-0.467996 0.01034,-0.059992 0,-0.1217551 0,-0.1826327 0,-0.060877 0.0062,-0.122078 0,-0.1826324 -0.0053,-0.050493 -0.01911,-0.099937 -0.03424,-0.1483891 C 60.097987,4.0075027 60.012417,3.756589 59.96881,3.7015068 59.842068,3.5414152 59.666271,3.4215201 59.512227,3.290583 59.425157,3.2165749 59.344984,3.1372349 59.249692,3.0737067"
       id="path10915" />
    <path
       style="fill:url(#linearGradient11769);fill-opacity:1;stroke:#f5f5f5;stroke-width:2.423;stroke-linecap:round;stroke-linejoin:round;stroke-dasharray:none;stroke-opacity:1;stop-color:#000000"
       id="rect11761"
       width="104.27296"
       height="74.735443"
       x="58.094292"
       y="42.542469"
       inkscape:path-effect="#path-effect12621"
       d="m 67.090125,42.542469 h 86.281295 a 8.9958333,8.9958333 45 0 1 8.99583,8.995833 v 56.743778 a 8.9958333,8.9958333 135 0 1 -8.99583,8.99583 H 67.090125 a 8.9958333,8.9958333 45 0 1 -8.995833,-8.99583 V 51.538302 a 8.9958333,8.9958333 135 0 1 8.995833,-8.995833 z"
       sodipodi:type="rect"
       inkscape:export-filename="menu\GameSelectWindow.png"
       inkscape:export-xdpi="238.05963"
       inkscape:export-ydpi="238.05963" />
    <rect
       style="fill:#525252;fill-opacity:1;stroke:none;stroke-width:3.11696;stroke-linecap:round;stroke-linejoin:round;stroke-dasharray:none;stroke-opacity:1;stop-color:#000000"
       id="rect12792"
       width="89.321297"
       height="45.828609"
       x="65.570122"
       y="48.831875" />
    <path
       style="fill:none;fill-opacity:1;stroke:#ffffff;stroke-width:3.36035;stroke-linecap:round;stroke-linejoin:round;stroke-dasharray:none;stroke-opacity:1;stop-color:#000000"
       d="m 41.849244,73.700356 -6.237822,6.237823 6.237822,6.237823"
       id="path13072" />
    <circle
       style="fill:url(#linearGradient15803);fill-opacity:1;stroke:none;stroke-width:1.77957;stroke-linecap:round;stroke-linejoin:round;stroke-dasharray:none;stroke-opacity:1;stop-color:#000000"
       id="path13126-0"
       cx="-178.07416"
       cy="81.486229"
       r="9.3541994"
       transform="scale(-1,1)"
       inkscape:export-filename="menu\right.png"
       inkscape:export-xdpi="238.05963"
       inkscape:export-ydpi="238.05963" />
    <path
       style="fill:none;fill-opacity:1;stroke:#ffffff;stroke-width:3.36035;stroke-linecap:round;stroke-linejoin:round;stroke-dasharray:none;stroke-opacity:1;stop-color:#000000"
       d="m 175.93899,75.248405 6.23782,6.237824 -6.23782,6.237823"
       id="path13072-1" />
    <circle
       style="fill:url(#linearGradient15844);fill-opacity:1;stroke:none;stroke-width:1.77957;stroke-linecap:round;stroke-linejoin:round;stroke-dasharray:none;stroke-opacity:1;stop-color:#000000"
       id="path13126-0-4"
       cx="24.854876"
       cy="108.54343"
       r="9.3541994"
       transform="matrix(0,1,1,0,0,0)"
       inkscape:export-filename="menu\up.png"
       inkscape:export-xdpi="238.05963"
       inkscape:export-ydpi="238.05963" />
    <path
       style="fill:none;fill-opacity:1;stroke:#ffffff;stroke-width:3.36035;stroke-linecap:round;stroke-linejoin:round;stroke-dasharray:none;stroke-opacity:1;stop-color:#000000"
       d="m 102.23102,26.915449 6.23782,-6.23782 6.23782,6.23782"
       id="path13072-1-9" />
    <circle
       style="fill:url(#linearGradient15885);fill-opacity:1;stroke:none;stroke-width:1.77957;stroke-linecap:round;stroke-linejoin:round;stroke-dasharray:none;stroke-opacity:1;stop-color:#000000"
       id="path13126-0-4-2"
       cx="-135.2702"
       cy="109.26019"
       r="9.3541994"
       transform="rotate(-90)"
       inkscape:export-filename="menu\down.png"
       inkscape:export-xdpi="238.05963"
       inkscape:export-ydpi="238.05963" />
    <path
       style="fill:none;fill-opacity:1;stroke:#ffffff;stroke-width:3.36035;stroke-linecap:round;stroke-linejoin:round;stroke-dasharray:none;stroke-opacity:1;stop-color:#000000"
       d="m 102.94779,133.20962 6.23782,6.23782 6.23782,-6.23782"
       id="path13072-1-9-2" />
    <text
       xml:space="preserve"
       style="font-style:normal;font-variant:normal;font-weight:bold;font-stretch:normal;font-size:12.6923px;font-family:Arial;-inkscape-font-specification:'Arial Bold';fill:#9baab3;fill-opacity:1;stroke:#ffffff;stroke-width:21.6789;stroke-linecap:round;stroke-linejoin:round;stroke-dasharray:none;stroke-opacity:1;stop-color:#000000"
       x="92.126541"
       y="109.53785"
       id="text16092"><tspan
         sodipodi:role="line"
         id="tspan16090"
         style="fill:#ffffff;fill-opacity:1;stroke:none;stroke-width:21.6788"
         x="92.126541"
         y="109.53785">Sonic</tspan></text>
  </g>
</svg>
